<svg width="18" height="18" viewBox="0 0 18 18" fill="none" xmlns="http://www.w3.org/2000/svg">
<path d="M15.6668 0.666748H5.66675C4.75008 0.666748 4.00008 1.41675 4.00008 2.33341V12.3334C4.00008 13.2501 4.75008 14.0001 5.66675 14.0001H15.6668C16.5834 14.0001 17.3334 13.2501 17.3334 12.3334V2.33341C17.3334 1.41675 16.5834 0.666748 15.6668 0.666748ZM8.58342 6.91675C8.58342 7.60842 8.02508 8.16675 7.33342 8.16675H6.50008V9.83342H5.25008V4.83342H7.33342C8.02508 4.83342 8.58342 5.39175 8.58342 6.08342V6.91675ZM12.7501 8.58342C12.7501 9.27508 12.1918 9.83342 11.5001 9.83342H9.41675V4.83342H11.5001C12.1918 4.83342 12.7501 5.39175 12.7501 6.08342V8.58342ZM16.0834 6.08342H14.8334V6.91675H16.0834V8.16675H14.8334V9.83342H13.5834V4.83342H16.0834V6.08342ZM6.50008 6.91675H7.33342V6.08342H6.50008V6.91675ZM2.33342 4.00008H0.666748V15.6667C0.666748 16.5834 1.41675 17.3334 2.33342 17.3334H14.0001V15.6667H2.33342V4.00008ZM10.6667 8.58342H11.5001V6.08342H10.6667V8.58342Z" fill="#107AB7"/>
</svg>
