<svg width="88" height="88" viewBox="0 0 88 88" fill="none" xmlns="http://www.w3.org/2000/svg">
<rect width="88" height="88" rx="44" fill="#107AB7"/>
<path d="M64.146 21.6C56.4408 21.6 47.1039 24.844 39.487 32.4609L37.8476 34.1003C37.6458 34.2985 37.4988 34.5456 37.4207 34.8175L36.6352 37.7205C36.2783 37.4827 35.8424 37.3943 35.421 37.4741C34.9996 37.5539 34.6263 37.7956 34.381 38.1475C30.5737 43.6479 28.6792 49.5926 28.6261 54.9169C28.6261 54.9226 28.6261 54.9283 28.6261 54.934V56.8637L22.0003 63.609C21.6963 63.9196 21.5279 64.338 21.5318 64.7726C21.5357 65.2072 21.7118 65.6225 22.0213 65.9275C22.3309 66.2325 22.7487 66.4024 23.1833 66.4C23.6179 66.3975 24.0338 66.2229 24.3398 65.9144L31.3755 58.7592H32.4513C32.4627 58.7593 32.4741 58.7593 32.4855 58.7592C39.758 58.6021 48.1794 54.7629 54.9928 47.9496C57.3461 45.5961 59.5089 43.2065 61.1746 40.487C61.3077 40.2685 61.3879 40.0219 61.4086 39.7669C61.4294 39.5119 61.3902 39.2555 61.2941 39.0184C61.5121 38.9597 61.7157 38.8566 61.892 38.7155C62.0683 38.5745 62.2136 38.3985 62.3187 38.1987C65.0278 33.0533 65.7853 27.9396 65.7853 23.2394C65.7853 22.8046 65.6126 22.3877 65.3051 22.0802C64.9977 21.7728 64.5807 21.6 64.146 21.6ZM62.4383 24.9641C62.2767 28.5705 61.5516 32.2764 59.706 36.0299L56.1028 36.935C55.7533 37.0171 55.4404 37.2117 55.2122 37.4888C54.984 37.766 54.8531 38.1103 54.8395 38.4691C54.8259 38.8278 54.9305 39.1811 55.1371 39.4747C55.3437 39.7683 55.641 39.9859 55.9832 40.0942L57.1274 40.4699C55.8462 42.2135 54.3871 43.9274 52.6703 45.6442C47.1715 51.1431 40.4943 54.4467 34.7909 55.2755L56.5638 33.1269C56.7973 32.8945 56.9553 32.5973 57.0174 32.2738C57.0794 31.9504 57.0426 31.6157 56.9118 31.3135C56.7809 31.0112 56.5621 30.7554 56.2838 30.5793C56.0055 30.4032 55.6805 30.3151 55.3514 30.3263C54.9316 30.343 54.5343 30.5203 54.2414 30.8215L31.9903 53.4483C32.3087 49.8623 33.6107 45.8829 35.8838 42.0239L36.0546 42.2459C36.2376 42.4943 36.487 42.686 36.7742 42.799C37.0613 42.912 37.3745 42.9416 37.6777 42.8845C37.981 42.8274 38.2619 42.686 38.4883 42.4763C38.7148 42.2667 38.8774 41.9974 38.9576 41.6995L40.4945 36.0812L41.8095 34.7663C48.2335 28.3422 55.9675 25.4075 62.4383 24.9641Z" fill="white"/>
</svg>
