<svg width="88" height="88" viewBox="0 0 88 88" fill="none" xmlns="http://www.w3.org/2000/svg">
<rect width="88" height="88" rx="44" fill="#107AB7"/>
<path d="M44.0001 21.6C31.6299 21.6 21.6001 31.6298 21.6001 44C21.6001 56.3702 31.6299 66.4 44.0001 66.4C56.3703 66.4 66.4001 56.3702 66.4001 44C66.4001 31.6298 56.3703 21.6 44.0001 21.6ZM44.0001 61.9868C34.0661 61.9868 26.0133 53.934 26.0133 44C26.0133 39.8255 27.4366 35.9844 29.8227 32.9326L35.4487 38.5586C33.9188 40.8013 32.8001 43.4086 32.8001 46.24C32.8001 52.4242 37.8137 57.44 44.0001 57.44C46.8718 57.44 49.4899 56.3585 51.4718 54.5813L55.0675 58.177C52.0157 60.5635 48.1746 61.9868 44.0001 61.9868ZM36.1601 46.24H38.4001C38.4001 49.3267 40.9111 51.84 44.0001 51.84V54.08C39.6778 54.08 36.1601 50.5623 36.1601 46.24ZM58.1829 55.0607L54.1343 51.0121C54.8175 49.5642 55.2001 47.9469 55.2001 46.24C55.2001 37.28 44.0001 30.56 44.0001 30.56C44.0001 30.56 41.1208 32.2888 38.2823 35.1605L32.9394 29.8172C35.9903 27.4339 39.8288 26.0133 44.0001 26.0133C53.934 26.0133 61.9869 34.0661 61.9869 44C61.9869 48.1713 60.5658 52.0098 58.1829 55.0607Z" fill="white"/>
</svg>
