<svg width="88" height="88" viewBox="0 0 88 88" fill="none" xmlns="http://www.w3.org/2000/svg">
<rect width="88" height="88" rx="44" fill="#107AB7"/>
<path d="M40.6426 45.248C34.5352 44.9294 29.6492 39.831 29.6492 33.6704C29.6492 27.2974 34.8538 22.0927 41.2268 22.0927C47.5998 22.0927 52.8045 27.2974 52.8045 33.6704C52.8045 36.3258 51.9016 38.7688 50.4146 40.7338C50.627 41.2649 50.7333 41.8491 50.7333 42.4333V45.0887C54.026 42.3802 56.0972 38.2377 56.0972 33.6704C56.0972 25.4917 49.4586 18.8 41.2268 18.8C32.995 18.8 26.3564 25.4386 26.3564 33.6704C26.3564 41.6367 32.6764 48.169 40.5895 48.4877V45.248H40.6426Z" fill="white"/>
<path d="M44.9434 29.3686L39.845 34.467L37.5082 32.1302C36.8709 31.4929 35.8619 31.4929 35.2246 32.1302C34.5873 32.7675 34.5873 33.7766 35.2246 34.4139L38.6766 37.8659C38.9953 38.1846 39.4201 38.3439 39.845 38.3439C40.2699 38.3439 40.6947 38.1846 41.0134 37.8659L47.2271 31.6522C47.8644 31.0149 47.8644 30.0059 47.2271 29.3686C46.5898 28.7313 45.5807 28.7313 44.9434 29.3686Z" fill="white"/>
<path d="M61.5669 54.5421C61.5669 53.2144 60.4516 52.0991 59.1239 52.0991C58.2742 52.0991 57.4775 52.5771 57.0527 53.2675V53.2144C57.0527 51.8866 55.9374 50.7714 54.6097 50.7714C53.7599 50.7714 52.9633 51.2493 52.5384 51.8866V51.8335C52.5384 50.5058 51.4232 49.3905 50.0954 49.3905C49.2457 49.3905 48.4491 49.8685 48.0242 50.5058V42.3802C48.0242 41.7429 47.7587 41.1056 47.3338 40.6808C46.8558 40.2028 46.2716 39.9903 45.6343 39.9903C44.3066 39.9903 43.1913 41.1056 43.1913 42.4333V57.463C43.1913 57.6224 43.1382 57.7286 42.9789 57.7817C42.8727 57.8348 42.7134 57.8348 42.6072 57.7286L40.2173 55.1794C39.3675 54.3296 38.0929 54.2234 37.0839 54.8607C36.4997 55.2325 36.1279 55.8698 36.0217 56.5602C35.9155 57.2506 36.1279 57.941 36.5528 58.4721L42.7134 65.9073C44.4659 68.0316 47.0152 69.2 49.7237 69.2H53.5475C55.6718 69.2 57.69 68.3503 59.2301 66.8632C60.7703 65.3231 61.5669 63.3581 61.5669 61.1806V54.5421Z" fill="white"/>
</svg>
