<svg width="48" height="32" viewBox="0 0 48 32" fill="none" xmlns="http://www.w3.org/2000/svg">
<path fill-rule="evenodd" clip-rule="evenodd" d="M4 0C1.79086 0 0 1.79086 0 4V28C0 30.2091 1.79086 32 4 32H44C46.2091 32 48 30.2091 48 28V4C48 1.79086 46.2091 0 44 0H4ZM21.3854 10.8894C21.4926 10.8894 21.5976 10.9203 21.6877 10.9785L28.7446 15.5313C29.0034 15.6983 29.0778 16.0434 28.9109 16.3022C28.8679 16.3688 28.8112 16.4255 28.7446 16.4684L21.6877 21.0213C21.4289 21.1883 21.0838 21.1138 20.9168 20.855C20.8587 20.7649 20.8278 20.66 20.8278 20.5527V11.447C20.8278 11.1391 21.0774 10.8894 21.3854 10.8894ZM3 3.5C3 3.22386 3.22386 3 3.5 3H8.5C8.77614 3 9 3.22386 9 3.5V5.5C9 5.77614 8.77614 6 8.5 6H3.5C3.22386 6 3 5.77614 3 5.5V3.5ZM3.5 26C3.22386 26 3 26.2239 3 26.5V28.5C3 28.7761 3.22386 29 3.5 29H8.5C8.77614 29 9 28.7761 9 28.5V26.5C9 26.2239 8.77614 26 8.5 26H3.5ZM12 3.5C12 3.22386 12.2239 3 12.5 3H17.5C17.7761 3 18 3.22386 18 3.5V5.5C18 5.77614 17.7761 6 17.5 6H12.5C12.2239 6 12 5.77614 12 5.5V3.5ZM12.5 26C12.2239 26 12 26.2239 12 26.5V28.5C12 28.7761 12.2239 29 12.5 29H17.5C17.7761 29 18 28.7761 18 28.5V26.5C18 26.2239 17.7761 26 17.5 26H12.5ZM21 3.5C21 3.22386 21.2239 3 21.5 3H26.5C26.7761 3 27 3.22386 27 3.5V5.5C27 5.77614 26.7761 6 26.5 6H21.5C21.2239 6 21 5.77614 21 5.5V3.5ZM21.5 26C21.2239 26 21 26.2239 21 26.5V28.5C21 28.7761 21.2239 29 21.5 29H26.5C26.7761 29 27 28.7761 27 28.5V26.5C27 26.2239 26.7761 26 26.5 26H21.5ZM30 3.5C30 3.22386 30.2239 3 30.5 3H35.5C35.7761 3 36 3.22386 36 3.5V5.5C36 5.77614 35.7761 6 35.5 6H30.5C30.2239 6 30 5.77614 30 5.5V3.5ZM30.5 26C30.2239 26 30 26.2239 30 26.5V28.5C30 28.7761 30.2239 29 30.5 29H35.5C35.7761 29 36 28.7761 36 28.5V26.5C36 26.2239 35.7761 26 35.5 26H30.5ZM39 3.5C39 3.22386 39.2239 3 39.5 3H44.5C44.7761 3 45 3.22386 45 3.5V5.5C45 5.77614 44.7761 6 44.5 6H39.5C39.2239 6 39 5.77614 39 5.5V3.5ZM39.5 26C39.2239 26 39 26.2239 39 26.5V28.5C39 28.7761 39.2239 29 39.5 29H44.5C44.7761 29 45 28.7761 45 28.5V26.5C45 26.2239 44.7761 26 44.5 26H39.5Z" fill="#107AB7"/>
</svg>
